# xmcd
#
# Track frame offsets:
#	150
#	15442
#	31896
#	49113
#	61637
#	75263
#	95064
#	113887
#	130460
#	143439
#	161589
#	177983
#	193315
#	209597
#	223949
#	233612
#	245217
#	271167
#
# Disc length: 3833 seconds
#
# Revision: 0
# Processed by: cddbd v1.5.2PL0 Copyright (c) Steve Scherf et al.
# Submitted via: EZCDAudioConverter 3.1.0.1
#
DISCID=fc0ef712
DTITLE=Various Artist - Vyznání
DYEAR=2005
DGENRE=wedding
TTITLE0=Vladimír Popelka - Vyznání
TTITLE1=Friderik Chopin - Largo
TTITLE2=Alonso Mudara - Fantasia
TTITLE3=skotská lidová - Valčík na rozloučenou
TTITLE4=Claude Debussy - Dívka s vlasy jako len
TTITLE5=Tomasso Giovanni Albinoni - Adagio
TTITLE6=Andrew Lloyd Webber - Vzpomínka
TTITLE7=Johann Sebastian Bach - Adagio
TTITLE8=Andrew Lloyd Weber - All I Ask of You
TTITLE9=Leoš Janáček - V pláči
TTITLE10=Ronald Binge - Alžbětínská serenáda
TTITLE11=Jan Hála - Nikdo mě nepotěší
TTITLE12=George Gershwin - Rapsodie v modrém
TTITLE13=Petr Iljič Čjkovskij - Píseň beze slov
TTITLE14=Christian Sindig - Rašení jara
TTITLE15=Felix Mendelssohn - Jarní píseň
TTITLE16=Benjamin Goddard - Ukolébavka
TTITLE17=Edward Elgar - Pozdrav lásky
EXTD=
EXTT0=
EXTT1=
EXTT2=
EXTT3=
EXTT4=
EXTT5=
EXTT6=
EXTT7=
EXTT8=
EXTT9=
EXTT10=
EXTT11=
EXTT12=
EXTT13=
EXTT14=
EXTT15=
EXTT16=
EXTT17=
PLAYORDER=
